HIERARCHY
ROOT Hips
{
	OFFSET 0.00000 0.00000 0.00000
	CHANNELS 6 Xposition Yposition Zposition Zrotation Yrotation Xrotation 
	JOINT LHipJoint
	{
		OFFSET 0 0 0
		CHANNELS 3 Zrotation Yrotation Xrotation
		JOINT LeftHip
		{
			OFFSET 1.75344 -1.53157 0.77399
			CHANNELS 3 Zrotation Yrotation Xrotation
			JOINT LeftKnee
			{
				OFFSET 2.25415 -6.19323 0.00000
				CHANNELS 3 Zrotation Yrotation Xrotation
				JOINT LeftAnkle
				{
					OFFSET 2.30342 -6.32861 0.00000
					CHANNELS 3 Zrotation Yrotation Xrotation
					JOINT LeftToe
					{
						OFFSET 0.10958 -0.30108 1.49206
						CHANNELS 3 Zrotation Yrotation Xrotation
						End Site
						{
							OFFSET 0.00000 -0.00000 0.77783
						}
					}
				}
			}
		}
	}
	JOINT RHipJoint
	{
		OFFSET 0 0 0
		CHANNELS 3 Zrotation Yrotation Xrotation
		JOINT RightHip
		{
			OFFSET -1.81912 -1.53156 0.77399
			CHANNELS 3 Zrotation Yrotation Xrotation
			JOINT RightKnee
			{
				OFFSET -2.22882 -6.12365 0.00000
				CHANNELS 3 Zrotation Yrotation Xrotation
				JOINT RightAnkle
				{
					OFFSET -2.21943 -6.09785 0.00000
					CHANNELS 3 Zrotation Yrotation Xrotation
					JOINT RightToe
					{
						OFFSET -0.18931 -0.52012 1.59379
						CHANNELS 3 Zrotation Yrotation Xrotation
						End Site
						{
							OFFSET -0.00000 -0.00000 0.84686
						}
					}
				}
			}
		}
	}
	JOINT lowerback
	{
		OFFSET 0 0 0
		CHANNELS 3 Zrotation Yrotation Xrotation
		JOINT Chest
		{
			OFFSET -0.00200 1.66634 -0.14248
			CHANNELS 3 Zrotation Yrotation Xrotation
			JOINT Chest2
			{
				OFFSET -0.00875 1.64542 0.09514
				CHANNELS 3 Zrotation Yrotation Xrotation
				JOINT lowerneck
				{
					OFFSET 0 0 0
					CHANNELS 3 Zrotation Yrotation Xrotation
					JOINT Neck
					{
						OFFSET 0.02257 1.59605 0.00839
						CHANNELS 3 Zrotation Yrotation Xrotation
						JOINT Head
						{
							OFFSET -0.10214 1.57530 -0.23335
							CHANNELS 3 Zrotation Yrotation Xrotation
							End Site
							{
								OFFSET -0.03588 1.60717 -0.08062
							}
						}
					}
				}
				JOINT LeftCollar
				{
					OFFSET 0 0 0
					CHANNELS 3 Zrotation Yrotation Xrotation
					JOINT LeftShoulder
					{
						OFFSET 2.54983 1.10186 0.40078
CHANNELS 3 Zrotation Xrotation Yrotation
						JOINT LeftElbow
						{
OFFSET 0 -4.288400 0.000000
CHANNELS 3 Zrotation Xrotation Yrotation
							JOINT LeftWrist
							{
OFFSET 0 -3.065520 -0.000000
CHANNELS 3 Zrotation Xrotation Yrotation
								JOINT lhand
								{
									OFFSET 0 0 0
CHANNELS 3 Zrotation Xrotation Yrotation
									JOINT LFingers
									{
OFFSET 0 -0.753040 0.000000
CHANNELS 3 Zrotation Xrotation Yrotation
										End Site
										{
OFFSET 0 -0.607120 0.000000
										}
									}
								}
								JOINT LThumb
								{
OFFSET 0 0.000000 0.000000
CHANNELS 3 Zrotation Xrotation Yrotation
									End Site
									{
OFFSET 0 -0.616390 0.616390
									}
								}
							}
						}
					}
				}
				JOINT RightCollar
				{
					OFFSET 0 0 0
					CHANNELS 3 Zrotation Yrotation Xrotation
					JOINT RightShoulder
					{
						OFFSET -2.60909 1.35448 0.21802
CHANNELS 3 Zrotation Xrotation Yrotation
						JOINT RightElbow
						{
OFFSET 0 -4.521720 -0.000000
CHANNELS 3 Zrotation Xrotation Yrotation
							JOINT RightWrist
							{
OFFSET 0 -2.891400 0.000000
CHANNELS 3 Zrotation Xrotation Yrotation
								JOINT rhand
								{
									OFFSET 0 0 0
CHANNELS 3 Zrotation Xrotation Yrotation
									JOINT RFingers
									{
OFFSET 0 -0.680540 0.000000
CHANNELS 3 Zrotation Xrotation Yrotation
										End Site
										{
OFFSET 0 -0.548670 0.000000
										}
									}
								}
								JOINT RThumb
								{
OFFSET 0 0.000000 0.000000
CHANNELS 3 Zrotation Xrotation Yrotation
									End Site
									{
OFFSET 0 -0.557050 0.557050
									}
								}
							}
						}
					}
				}
			}
		}
	}
}
MOTION
Frames: 6
Frame Time: 0.008333333333333333
9.008900 15.534600 22.749400 179.719000 0.917600 178.727000 0.000000 0.000000 0.000000 -26.781800 -22.848500 4.811600 1.167100 6.857700 19.294600 0.659300 14.128200 -26.186100 1.183100 -6.903100 -19.428700 0.000000 0.000000 0.000000 27.665700 18.032300 7.022800 -0.691000 -5.314100 14.806800 1.053500 -23.236700 -24.731800 -0.183600 -2.760000 7.611400 -1.203200 0.317100 7.992400 0.431600 0.438400 -5.132900 1.056700 0.362600 -9.982700 -6.450900 -2.131900 -10.199500 9.162100 -4.635500 19.765300 3.621200 -2.208200 8.132700 -0.000000 -0.000000 0.000000 0.985800 15.173300 -27.819100 21.115900 -31.963400 6.111200 1.400800 11.537900 38.490200 0.000000 0.000000 0.000000 -7.125000 0.000000 0.000000 -17.211300 -7.017500 -20.059500 -0.000000 -0.000000 0.000000 -5.063100 14.298000 41.520800 -20.713800 -31.492700 -5.899700 -20.729800 44.692500 54.249000 0.000000 0.000000 0.000000 7.125000 0.000000 -0.000000 70.405300 79.449800 -60.009100
9.007133 15.535805 22.748918 179.749514 0.880100 178.730212 0.000000 0.000000 0.000000 -26.752812 -22.837338 4.826134 1.161880 6.843005 19.251157 0.645007 14.142253 -26.087973 1.183823 -6.905108 -19.434482 0.000000 0.000000 0.000000 27.710588 18.101840 7.067367 -0.690518 -5.312414 14.801821 1.047959 -23.274281 -24.860682 -0.196850 -2.857003 7.880969 -1.162729 0.308829 7.991115 0.432323 0.433020 -5.140529 1.035501 0.357541 -9.989766 -6.392923 -2.153581 -10.121207 9.085654 -4.627871 19.564067 3.584744 -2.203221 8.048144 0.000000 0.000000 0.000000 0.982508 15.180688 -27.801514 21.128989 -31.978577 6.118106 2.161005 11.125316 38.511881 0.000000 0.000000 0.000000 -7.125000 0.000000 0.000000 -16.827705 -7.113620 -19.597130 0.000000 0.000000 0.000000 -5.052741 14.340640 41.621015 -21.006736 -31.835824 -6.053636 -20.215074 43.777877 54.156253 0.000000 0.000000 0.000000 7.125000 0.000000 0.000000 69.908641 79.228974 -59.308478
9.006700 15.537676 22.751527 179.745486 0.764485 178.777663 0.000000 0.000000 0.000000 -26.725035 -22.868900 4.759706 1.157509 6.830492 19.214139 0.616229 14.176849 -25.895247 1.238662 -7.056133 -19.882287 0.000000 0.000000 0.000000 27.705056 18.179077 7.043636 -0.691854 -5.317515 14.816417 1.030056 -23.309619 -25.100525 -0.228340 -3.071875 8.479177 -1.185040 0.269046 7.999708 0.429834 0.378432 -5.171428 1.054177 0.333938 -10.027679 -6.392093 -2.158597 -10.003463 9.094413 -4.613031 19.367803 3.587920 -2.194667 7.960618 0.000000 0.000000 0.000000 0.948430 15.189893 -27.694421 21.143593 -31.995572 6.125860 2.443613 11.068702 38.417451 0.000000 0.000000 0.000000 -7.125000 0.000000 0.000000 -16.679544 -7.051753 -19.393586 0.000000 0.000000 0.000000 -5.060139 14.363160 41.840250 -21.265312 -32.136285 -6.190664 -20.095648 43.007849 54.234340 0.000000 0.000000 0.000000 7.125000 0.000000 0.000000 70.316089 79.193405 -59.656860
9.004450 15.537514 22.749005 179.738409 0.745527 178.773643 0.000000 0.000000 0.000000 -26.758023 -22.915659 4.793876 1.155295 6.824127 19.195364 0.600659 14.265201 -25.866299 1.279026 -7.167048 -20.211316 0.000000 0.000000 0.000000 27.695323 18.199794 7.073904 -0.691450 -5.315987 14.811975 1.015946 -23.305086 -25.225061 -0.246782 -3.196632 8.826572 -1.191071 0.249163 7.963535 0.432027 0.351939 -5.170790 1.064383 0.321690 -10.004695 -6.367220 -2.587130 -9.921812 9.021867 -4.474165 19.336638 3.614247 -1.837697 7.930452 0.000000 0.000000 0.000000 0.895224 15.187379 -27.528659 21.155622 -32.009558 6.132254 2.383641 11.254884 38.361026 0.000000 0.000000 0.000000 -7.125000 0.000000 0.000000 -16.707020 -6.991783 -19.413040 0.000000 0.000000 0.000000 -5.116541 14.365478 42.232373 -21.542085 -32.454985 -6.338680 -20.250331 42.119499 54.517905 0.000000 0.000000 0.000000 7.125000 0.000000 0.000000 71.835055 79.291639 -61.205948
9.001900 15.536288 22.744878 179.750449 0.759561 178.729725 0.000000 0.000000 0.000000 -26.787912 -22.932300 4.869564 1.155254 6.824021 19.195141 0.609872 14.274594 -25.951161 1.278897 -7.166691 -20.210261 0.000000 0.000000 0.000000 27.712383 18.174599 7.147211 -0.688864 -5.306183 14.783809 1.006542 -23.286424 -25.275953 -0.259833 -3.275847 9.047908 -1.177684 0.232557 7.937989 0.448280 0.332024 -5.151823 1.077775 0.311049 -9.967840 -6.338566 -3.201278 -9.887432 8.895292 -4.276626 19.411154 3.646158 -1.326871 7.941586 0.000000 0.000000 0.000000 0.838448 15.170121 -27.362675 21.168046 -32.023979 6.138853 2.149455 11.535387 38.404367 0.000000 0.000000 0.000000 -7.125000 0.000000 0.000000 -16.828073 -7.009401 -19.570748 0.000000 0.000000 0.000000 -5.218680 14.334856 42.714795 -21.842503 -32.798211 -6.500538 -20.329990 40.937393 54.846427 0.000000 0.000000 0.000000 7.125000 0.000000 0.000000 73.586665 79.363413 -62.951599
9.004452 15.538088 22.752517 179.793406 0.543663 178.749558 0.000000 0.000000 0.000000 -26.650876 -22.863697 4.726293 1.156185 6.826659 19.202977 0.640119 13.943914 -25.838230 1.250455 -7.089545 -19.980892 0.000000 0.000000 0.000000 27.771152 18.181181 7.138418 -0.686521 -5.297277 14.758421 0.988535 -23.329177 -25.526451 -0.308680 -3.571696 9.874647 -1.207540 0.146161 8.068272 0.487722 0.214817 -5.185341 1.155833 0.259383 -10.079697 -6.412226 -3.181218 -9.852844 8.909840 -4.242535 19.339554 3.665415 -1.319756 7.910514 0.000000 0.000000 0.000000 0.797508 15.145393 -27.277659 21.190226 -32.049757 6.150637 1.935316 11.732801 38.521047 0.000000 0.000000 0.000000 -7.125000 0.000000 0.000000 -16.942444 -7.099272 -19.738918 0.000000 0.000000 0.000000 -5.331542 14.248506 43.086488 -22.127746 -33.121029 -6.655525 -19.800247 39.384611 54.895228 0.000000 0.000000 0.000000 7.125000 0.000000 0.000000 73.778650 79.159988 -62.920439
